<svg id="Ebene_1" data-name="Ebene 1" xmlns="http://www.w3.org/2000/svg" viewBox="0 0 400 331"><defs><style>.cls-1{fill:#fefefe;}.cls-2{fill:#394d54;}.cls-3{fill:#039ac5;}.cls-4{fill:#24b7ea;}.cls-5{fill:#008ab7;}.cls-6{fill:#00a9d9;}.cls-7{fill:#bedadf;}.cls-8{fill:#02a9ce;}.cls-9{fill:#21bee9;}.cls-10{fill:#02a8ce;}.cls-11{fill:#21beea;}.cls-12{fill:#01a9cf;}.cls-13{fill:#02a9cf;}.cls-14{fill:#d2ebef;}.cls-15{fill:#cce8ed;}.cls-16{fill:#384e56;}.cls-17{fill:#384d55;}.cls-18{fill:#384f57;}.cls-19{fill:#394e55;}.cls-20{fill:#3e5259;}</style></defs><title>Docker_logo</title><path class="cls-1" d="M106.1,560.9q0-163.39-.1-326.81c0-3.42.67-4.09,4.09-4.09q195.92.17,391.82,0c3.42,0,4.09.67,4.09,4.09q-.18,161.42,0,322.82c0,3.42-.67,4.09-4.09,4.09Q304,560.84,106.1,560.9Z" transform="translate(-106 -230)"/><path class="cls-2" d="M129.91,369.55c7.86-3.84,18-2.7,20-13.77a37.53,37.53,0,0,0,17.56,8.78c3,.65,3.93.1,3.47-2.94-.88-5.81,0-11.61.13-17.43.07-2.57,1-3.44,3.57-3.37,6.16.15,12.33-.16,18.48.12,3.73.17,5.27-.63,5.06-4.81-.38-7.64,0-15.31-.18-23-.09-3.16.66-4.31,4.05-4.19,7.82.26,15.66,0,23.48.14,2.86.07,3.65-.83,3.59-3.63-.18-7.65.14-15.32-.15-23-.14-3.68.78-4.76,4.6-4.71,17.65.23,35.31,0,53,.19,3.67,0,4.92-.81,4.76-4.65-.32-7.65,0-15.32-.15-23,0-2.54.64-3.52,3.34-3.49,10.32.13,20.65.19,31,0,3.7-.07,3.42,2,3.41,4.42,0,17.81.08,35.63-.1,53.45,0,3.45.81,4.56,4.37,4.43,7.31-.29,14.66.19,22-.2,4.19-.22,4.93,1.34,4.81,5.06-.26,7.82-.09,15.65-.08,23.48,0,1.63-.3,3.35,2.33,3.41,13.89.28,27.62-.16,40.61-6,3.22-1.46,4.33-2.49,2.19-6.24-8.2-14.41-6.41-35.34,3.34-47.09,2-2.45,3.34-2.76,5.9-.6,9.49,8,17.45,16.95,19.86,29.59.58,3,2.15,2,3.91,1.68,11.83-2.34,23.12-1.16,33.79,4.88,2.62,1.48,3,2.59,1.58,5.31-7.77,15.34-21,21.95-37.3,22.42-6.63.19-10.26,1.92-12.14,8.32-1.14,3.91-3.49,7.47-5.31,11.2,9.22,3.22,23-.24,33.53-8.43,1.8,11,12.12,9.75,19.94,13.66-18,0-35.22.07-52.39-.06-3,0-4.78.78-6.45,3.39-23.74,37.21-58.21,58.55-100.95,67-24.32,4.8-48.94,6.57-73.25,0-34.9-9.4-58.34-30.72-66.61-66.81-.69-3-1.9-3.61-4.64-3.59C155.44,369.62,143.12,369.55,129.91,369.55Z" transform="translate(-106 -230)"/><path class="cls-2" d="M180.52,482.5c0-7.36,0-13.68,0-20,0-3.66.79-6.69,5.41-6.72s5.31,3,5.3,6.68c0,15,0,30,0,45,0,17.79-13.29,30.87-31.4,31a31,31,0,0,1-31.54-30.11c-.44-12.53,4.33-22.52,15.38-28.76s22.52-6,33.54.81Z" transform="translate(-106 -230)"/><path class="cls-2" d="M395.78,526.7c4.66.59,9.14.83,13.57-1.12a16.42,16.42,0,0,1,5.71-1.55c2.71-.08,4.14,2,4.7,4.38.66,2.9-1,4.64-3.35,6-11.55,6.95-27.9,4.56-37.61-5.53-12.87-13.37-12.24-33.91,1.41-45.8,13.85-12.07,35-10.4,45.76,3.6,4.92,6.41,4.55,9-1.61,14.18-9,7.63-17.93,15.39-26.87,23.1C396.77,524.61,395.81,525.08,395.78,526.7Z" transform="translate(-106 -230)"/><path class="cls-2" d="M260.19,507.5c-.07,17.88-13.84,31.24-31.9,31s-31.11-13.77-31.07-32a31.14,31.14,0,0,1,31.25-31.37C246.86,475.14,260.26,488.81,260.19,507.5Z" transform="translate(-106 -230)"/><path class="cls-2" d="M338.14,520.49c0,4.86,0,8.46,0,12.06,0,3.27-1.41,5.41-5,5.52-3.78.12-5.62-1.89-5.63-5.45q-.08-35.72,0-71.44c0-3.28,1.69-5.27,5.29-5.23,3.84,0,5.34,2.14,5.35,5.69v31c3.88-2,6-5.35,8.88-7.91,2.6-2.34,5-4.85,7.62-7.21s5.58-2.6,8-.18c2.62,2.57,1.77,5.55-.56,8-5.65,5.88-11.12,12-17.23,17.36-4,3.55-3.32,5.51.2,8.72,5.66,5.15,10.78,10.87,16.22,16.26,2.85,2.83,4.19,6,1.2,9.16s-6.07,1.46-8.69-1.06C348.87,530.94,343.94,526.12,338.14,520.49Z" transform="translate(-106 -230)"/><path class="cls-2" d="M297.65,475.06a28.22,28.22,0,0,1,14.83,3.66c3.17,1.73,4.19,4.39,2.95,7.51-1.31,3.28-4.36,3.35-7.23,2.49-3.47-1.05-6.66-2.79-10.49-2.83-9.14-.1-15.08,4.58-18.75,12.38-3.58,7.61-2.67,15.06,2.83,21.41,5.81,6.71,13.3,9.06,22,6.76a22.23,22.23,0,0,0,3.7-1.46c3.13-1.47,5.92-1.22,7.76,1.9s.31,6.93-3.5,8.61c-10.44,4.6-27.78,5.21-37.85-7.38-8.49-10.6-10.53-22.65-4.9-35.06C274.45,481.07,284.55,475.38,297.65,475.06Z" transform="translate(-106 -230)"/><path class="cls-2" d="M438.94,516.78c.48-5.55-.87-12.23.95-18.8,3.28-11.85,15.05-21.45,27.28-22.14,5.9-.33,8.6,1.17,8.52,5.05-.1,5-3.86,5.55-7.68,5.9a19.94,19.94,0,0,0-18.22,19.09c-.12,3.49,0,7,0,10.48,0,5.16,0,10.31,0,15.47,0,3.79-1.45,6.62-5.78,6.47-4.06-.15-5.18-2.8-5.07-6.49C439,527.16,438.94,522.5,438.94,516.78Z" transform="translate(-106 -230)"/><path class="cls-3" d="M245.76,405c.72-.36,1.43-.78,2.17-1.09,1.34-.55,2.44-1.37,1.95-2.95-.59-1.92-2-1.67-3.62-1.17-6,1.87-12.19,2.71-18.41,3.58a109.6,109.6,0,0,1-14.81.62c-7.72-2.8-11.89-9.35-16.2-15.65a46.49,46.49,0,0,1-6.35-13.52c-1.11-3.91-.09-5.11,4-5.23,1.17,0,2.33,0,3.5,0q90.42,0,180.84,0c3.31,1.81.31,3-.63,3.84a77.29,77.29,0,0,1-10,7.4c-27.91,18.56-57.74,32.4-91.32,37-7.79,1.06-15.6.69-23.42.31a5.69,5.69,0,0,1-2.75-1.55C248.5,412.87,245.06,409.78,245.76,405Z" transform="translate(-106 -230)"/><path class="cls-4" d="M188.06,346.08c2-.06,4-.17,6-.17,60.62,0,121.24.07,181.86-.07a66.29,66.29,0,0,0,35.56-10c2.53-1.58,3.34-2.55.93-5.45-8.84-10.63-9.91-29.34-3-41.46,1.47-2.57,2.53-3.41,5.11-1,9.43,8.75,15.63,18.94,15.45,32.24,1.41,2.62-.86,4.06-2.1,5.53C416.39,339.35,404.31,352.36,390,363c-11.51,4.73-23.53,3.51-35.36,2.36-8.17-.8-16.61-1.94-23-8.12-1.37-1.31-2-.22-2.79.55-11.23,11.26-44.2,11.24-55.51,0-.72-.71-1.32-2-2.75-.65-6.83,6.58-15.84,7.43-24.48,8.4-9.21,1-18.58,1.3-27.81-.58-1.95-.4-4.36-.4-5.7-1.57-6.06-5.32-12-3.56-18.12-.4a9.35,9.35,0,0,1-5.33,1C186,358.23,185.35,352.25,188.06,346.08Z" transform="translate(-106 -230)"/><path class="cls-5" d="M252.88,417c31.05,1.86,59.51-7.32,86.72-21,14.3-7.19,28.12-15.36,40.3-26a.73.73,0,0,1,1.23-.14h27c-20.23,36.75-68.95,67.87-129.34,68.15-9.53-2.2-16.21-8.74-23-15.14C254.22,421.4,252.3,419.79,252.88,417Z" transform="translate(-106 -230)"/><path class="cls-6" d="M390,363c9.53-9.37,19.21-18.6,28.53-28.18,4.31-4.44,8.74-8.93,11.45-14.68,11-4.29,22.08-5.69,33.5-1.41,3.91,1.46,4.91,2.88,2.11,6.59-7.67,10.15-18.35,14.66-30.35,14.35-8.65-.23-13.65,1.81-15.55,10.51-.62,2.83-2.48,5.41-3.86,8.07-3.41,6.57-3.89,7.39-10.4,3.78C399.42,358.77,394.93,360.2,390,363Z" transform="translate(-106 -230)"/><path class="cls-7" d="M252.88,417c5.37,8.34,13.27,13.75,21.59,18.66,1.42.84,2.88,1.61,4.33,2.41-32,2.41-60.3-5.52-84.35-29.93,11,1.13,20.79.53,30.57,0,.55.75-1.3,1.26-.45,1.54a123.72,123.72,0,0,0,26.68,6Z" transform="translate(-106 -230)"/><path class="cls-5" d="M381.13,370l-1.23.14q-92.29,0-184.58-.1c-4.16,0-4.75,1.2-3.36,5,4.27,11.71,11.54,21.11,21.08,28.91-5,0-10-.22-15,.12-4.72.33-7.7-1.4-10.14-5.48a93,93,0,0,1-10.17-24.8c-.91-3.49.24-3.84,3.22-4,13.14-.72,26.28-.6,39.43-.6q77.46,0,154.92,0C377.26,369.19,379.34,368.61,381.13,370Z" transform="translate(-106 -230)"/><path class="cls-8" d="M247.28,310.17c-3.64-.4-9.32,1.9-12.18-.9s-.71-8.51-.94-12.94c-.16-3.14.16-6.32-.08-9.45s1.11-4,4-3.88q9.94.25,19.91,0c2.75-.06,3.86.74,3.79,3.64q-.24,10,0,19.91c.07,2.89-1.07,3.8-3.82,3.66C254.7,310,251.38,310.17,247.28,310.17Z" transform="translate(-106 -230)"/><path class="cls-9" d="M261.84,327.27c-.47,4.56,1.72,10-.9,12.83-2.87,3-8.48.92-12.87,1s-10.12,2-13-.81-.86-8.51-.88-12.93c0-4.25-1.9-9.76.84-12.45s8.21-.59,12.47-.86a2.09,2.09,0,0,1,.5,0c4.4.38,10-1.92,12.9,1C263.62,317.76,261.27,323.29,261.84,327.27Z" transform="translate(-106 -230)"/><path class="cls-10" d="M230.16,327.86c-.35,3.67,1.9,9.43-.84,12.25-3,3.07-8.83.93-13.42,1-12.75.16-12.83.06-12.72-12.53,0-4.62-2-10.52.83-13.52s8.81-.9,13.4-1C230.16,313.93,230.16,314,230.16,327.86Z" transform="translate(-106 -230)"/><path class="cls-11" d="M278,310.19c-3.6-.55-9.26,2-12.08-1.08-2.53-2.77-.72-8.26-.72-12.54s-1.84-9.82.74-12.5c2.83-2.94,8.48-.75,12.9-1,3.47-.18,7,.08,10.45-.08,2.56-.11,3.54.79,3.49,3.41q-.19,10.2,0,20.41c.05,2.64-1,3.5-3.53,3.4C285.74,310.08,282.25,310.19,278,310.19Z" transform="translate(-106 -230)"/><path class="cls-12" d="M296.25,295.52c.5-3.45-1.9-8.88,1-11.67,2.62-2.55,7.93-.62,12-.77,3.65-.13,7.31.08,11-.06,2.51-.1,3.6.71,3.55,3.38-.13,6.81-.12,13.62,0,20.43.05,2.68-1.1,3.42-3.59,3.38q-10.21-.16-20.44,0c-2.53,0-3.64-.79-3.53-3.43C296.36,303.3,296.25,299.81,296.25,295.52Z" transform="translate(-106 -230)"/><path class="cls-11" d="M310.14,251.89c4.29.19,9.95-1.21,12.51,1,3,2.58.92,8.44,1,12.86.05,4.27,1.87,9.73-.82,12.51s-8.19.85-12.45.89c-4.45,0-10.13,1.88-13-.75s-.9-8.5-1-12.92-1.88-9.76.81-12.49,8.2-.62,12.45-.92h.5Z" transform="translate(-106 -230)"/><path class="cls-12" d="M340.5,341.15c-13.27,0-13.33,0-13.24-13,0-4.45-1.87-10.16.78-13,2.93-3.14,8.78-.89,13.34-1,4.27-.1,9.73-1.84,12.51.75s.91,8.16.91,12.41c0,4.42,2,10.11-.86,12.94s-8.52.61-12.94.94C340.83,341.16,340.67,341.15,340.5,341.15Z" transform="translate(-106 -230)"/><path class="cls-11" d="M310.21,341.33c-4.64-.71-10.28,1.84-13.12-1.24-2.57-2.79-.75-8.27-.74-12.55s-1.86-9.84.78-12.51c2.86-2.9,8.5-.93,12.91-.91s10-2,12.87,1c2.57,2.73.75,8.26.73,12.54s1.85,9.76-.78,12.53C320,343.19,314.35,340.52,310.21,341.33Z" transform="translate(-106 -230)"/><path class="cls-13" d="M277.8,341.15c-3.45-.38-8.89,1.83-11.69-.84s-.76-8.17-1-12.43c-.16-3.64,0-7.3,0-10.94-.06-2.15.83-2.94,2.94-2.92q10.95.09,21.9,0c2.23,0,2.86,1,2.84,3,0,7-.07,13.94,0,20.9,0,2.33-.85,3.3-3.22,3.22C285.92,341.06,282.27,341.15,277.8,341.15Z" transform="translate(-106 -230)"/><path class="cls-6" d="M188.06,346.08a98.44,98.44,0,0,0,1,18c-3.19,1.71-6.79.87-10.16,1.56-2.07.42-2.84-1.15-2.84-3.1,0-4.14,0-8.28-.14-12.42-.13-3.07.81-4.62,4.2-4.24C182.75,346.16,185.41,346,188.06,346.08Z" transform="translate(-106 -230)"/><path class="cls-14" d="M251.25,415.71c-2.72,3-5.72.29-8.39,0a57.77,57.77,0,0,1-18.12-5c-.65-.29-1.92-.29-1.67-1.3.13-.54,1.27-.84,2-1.26L245.76,405C246.82,408.93,249.55,412.06,251.25,415.71Z" transform="translate(-106 -230)"/><path class="cls-1" d="M160,527.47a20.68,20.68,0,0,1-.66-41.36c11.12-.21,20.92,9.1,21.17,20.12A20.94,20.94,0,0,1,160,527.47Z" transform="translate(-106 -230)"/><path class="cls-1" d="M380.78,507.58c.14-9.75,4.17-15.91,12-19.64s14.77-2.2,21.55,2.49c2.19,1.51,2.51,2.53.3,4.39q-13.72,11.55-27.22,23.36c-1.9,1.66-2.63.87-3.67-.8A18,18,0,0,1,380.78,507.58Z" transform="translate(-106 -230)"/><path class="cls-1" d="M228.91,527.47c-11.18,0-20.82-9.44-20.86-20.45a20.87,20.87,0,0,1,20.84-20.91c11.05.07,20.66,9.73,20.59,20.7A21,21,0,0,1,228.91,527.47Z" transform="translate(-106 -230)"/><path class="cls-15" d="M259.58,399.87a7.6,7.6,0,0,1-7.55-7.6,7.46,7.46,0,0,1,7.64-7.42,7.12,7.12,0,0,1,7.47,7.48A7.54,7.54,0,0,1,259.58,399.87Z" transform="translate(-106 -230)"/><path class="cls-2" d="M242.35,307.36c-1.77-4-1.73-17,0-20.9Z" transform="translate(-106 -230)"/><path class="cls-2" d="M245.36,307.41V286.48l1,0v20.91Z" transform="translate(-106 -230)"/><path class="cls-16" d="M257.53,307.48v-21.1l.86,0v21.09Z" transform="translate(-106 -230)"/><path class="cls-16" d="M254.69,286.4v21.07l-1,0V286.41Z" transform="translate(-106 -230)"/><path class="cls-2" d="M250.5,286.49v20.88h-.93v-20.9Z" transform="translate(-106 -230)"/><path class="cls-17" d="M237.91,286.86v20.37h-.67V286.8Z" transform="translate(-106 -230)"/><path class="cls-2" d="M241.26,338.43v-21l.9,0v21Z" transform="translate(-106 -230)"/><path class="cls-2" d="M246.38,317.42v21h-1v-21Z" transform="translate(-106 -230)"/><path class="cls-2" d="M250.4,317.44v20.95h-.92v-21Z" transform="translate(-106 -230)"/><path class="cls-18" d="M253.43,338.49V317.26l1,0v21.23Z" transform="translate(-106 -230)"/><path class="cls-18" d="M258.6,317.27V338.5h-1V317.28Z" transform="translate(-106 -230)"/><path class="cls-19" d="M237.94,317.76v20.48h-.71v-20.6Z" transform="translate(-106 -230)"/><path class="cls-2" d="M215.44,317.47v20.88l-.91,0V317.47Z" transform="translate(-106 -230)"/><path class="cls-2" d="M218.44,338.38V317.46l.83,0v20.92Z" transform="translate(-106 -230)"/><path class="cls-2" d="M223.51,317.52v20.83h-.93V317.49Z" transform="translate(-106 -230)"/><ellipse class="cls-2" cx="120.96" cy="97.92" rx="0.65" ry="14.76"/><ellipse class="cls-17" cx="104.57" cy="97.94" rx="0.46" ry="14.43"/><path class="cls-17" d="M206.94,317.83v20.38h-.67v-20.4Z" transform="translate(-106 -230)"/><path class="cls-18" d="M289.62,286.28v21.23l-1,0V286.3Z" transform="translate(-106 -230)"/><path class="cls-18" d="M285.54,286.28V307.5l-.81.06V286.32Z" transform="translate(-106 -230)"/><path class="cls-18" d="M281.57,286.25V307.5l-.87.05V286.28Z" transform="translate(-106 -230)"/><path class="cls-2" d="M277.4,286.39v21h-1V286.38Z" transform="translate(-106 -230)"/><path class="cls-2" d="M273.5,286.42v21c-2.08-7-1.4-14-1.6-21Z" transform="translate(-106 -230)"/><path class="cls-2" d="M269.38,286.44v21h-1v-21Z" transform="translate(-106 -230)"/><ellipse class="cls-2" cx="214.07" cy="66.94" rx="0.66" ry="14.77"/><path class="cls-16" d="M315.46,307.46V286.39l1,0v21.09Z" transform="translate(-106 -230)"/><path class="cls-16" d="M312.49,286.37v21.11h-1v-21.1Z" transform="translate(-106 -230)"/><path class="cls-16" d="M308.64,286.39v21.34C306.68,305,306.28,291.93,308.64,286.39Z" transform="translate(-106 -230)"/><path class="cls-2" d="M304.36,286.46v20.91l-.84,0V286.48Z" transform="translate(-106 -230)"/><path class="cls-2" d="M299.4,307.4V286.48h.94v20.9Z" transform="translate(-106 -230)"/><path class="cls-18" d="M315.4,276.53V255.32l1,0v21.23Z" transform="translate(-106 -230)"/><path class="cls-2" d="M319.44,276.4V255.47l.93,0v21Z" transform="translate(-106 -230)"/><path class="cls-18" d="M312.54,255.31v21.23h-1V255.32Z" transform="translate(-106 -230)"/><path class="cls-18" d="M308.58,255.31v21.22h-1V255.31Z" transform="translate(-106 -230)"/><path class="cls-2" d="M304.53,255.44v21l-1,0v-21Z" transform="translate(-106 -230)"/><path class="cls-2" d="M300.34,255.41v21l-.74,0v-21Z" transform="translate(-106 -230)"/><path class="cls-2" d="M330.35,338.38V317.46l.87,0v20.9Z" transform="translate(-106 -230)"/><path class="cls-16" d="M334.46,338.45V317.37h1v21.08Z" transform="translate(-106 -230)"/><path class="cls-16" d="M338.46,338.45V317.37h1v21.08Z" transform="translate(-106 -230)"/><path class="cls-16" d="M343.5,317.37v21.1l-.91,0V317.4Z" transform="translate(-106 -230)"/><path class="cls-2" d="M347.59,317.42v21h-1V317.46Z" transform="translate(-106 -230)"/><path class="cls-2" d="M351.58,317.45v20.94h-1v-20.9Z" transform="translate(-106 -230)"/><path class="cls-2" d="M300.33,317.44v21l-.92,0v-21Z" transform="translate(-106 -230)"/><path class="cls-2" d="M304.34,317.42v21h-1v-21Z" transform="translate(-106 -230)"/><path class="cls-18" d="M307.48,338.52V317.29l.79-.07v21.24Z" transform="translate(-106 -230)"/><path class="cls-18" d="M311.44,338.48V317.24h1v21.24Z" transform="translate(-106 -230)"/><path class="cls-18" d="M315.42,338.49V317.27h1v21.22Z" transform="translate(-106 -230)"/><path class="cls-2" d="M320.73,317.37v21.05l-.93,0v-21Z" transform="translate(-106 -230)"/><path class="cls-2" d="M268.38,338.38V317.45h1v20.9Z" transform="translate(-106 -230)"/><path class="cls-2" d="M273.44,317.47v20.9l-1,0V317.45Z" transform="translate(-106 -230)"/><path class="cls-2" d="M276.35,338.38V317.46l1,0v20.9Z" transform="translate(-106 -230)"/><path class="cls-16" d="M281.5,317.39v21.07h-1V317.38Z" transform="translate(-106 -230)"/><path class="cls-16" d="M285.56,317.38v21.07l-1,0V317.39Z" transform="translate(-106 -230)"/><path class="cls-16" d="M288.51,338.46V317.38h.88v21.07Z" transform="translate(-106 -230)"/><path class="cls-20" d="M259.83,397.83c-3-.3-4.93-1.75-5.52-4.5a5,5,0,0,1,3.27-6c1.24-.51,3.5-1.6,3.3,1.61-.05.84.22,2.08,1.09,1.91,2.74-.52,3.59.51,2.87,3S262.05,397.4,259.83,397.83Z" transform="translate(-106 -230)"/></svg>