<svg id="Ebene_1" data-name="Ebene 1" xmlns="http://www.w3.org/2000/svg" viewBox="0 0 309.71 67"><defs><style>.cls-1{fill:#394d54;}.cls-2{fill:#039ac5;}.cls-3{fill:#24b7ea;}.cls-4{fill:#008ab7;}.cls-5{fill:#00a9d9;}.cls-6{fill:#bedadf;}.cls-7{fill:#02a9ce;}.cls-8{fill:#21bee9;}.cls-9{fill:#02a8ce;}.cls-10{fill:#21beea;}.cls-11{fill:#01a9cf;}.cls-12{fill:#02a9cf;}.cls-13{fill:#d2ebef;}.cls-14{fill:#cce8ed;}.cls-15{fill:#384e56;}.cls-16{fill:#384d55;}.cls-17{fill:#384f57;}.cls-18{fill:#394e55;}.cls-19{fill:#3e5259;}.cls-20{fill:#3d3d3d;}.cls-21{opacity:0;}</style></defs><title>pimcore_docker-logo</title><path class="cls-1" d="M221.06,28.19c1.75-.89,4.06-.62,4.48-2.85l4,1.68c.77.32.84-.06.82-.74,0-1.18,0-2.37,0-3.55,0-.86.21-1.21,1.15-1.15,1.39.09,2.8,0,4.2,0,.66,0,.83-.2.82-.84,0-1.84,0-3.67,0-5.51,0-.83.24-1,1-1,1.71.06,3.41,0,5.12,0,.71,0,1-.14,1-.93-.07-1.72,0-3.44-.05-5.16,0-1,.3-1.11,1.14-1.1,3.94,0,7.89,0,11.82,0,1.06,0,1.27-.32,1.22-1.29-.07-1.64,0-3.29,0-4.93,0-.78.24-1,1-.95,2.24.05,4.48.06,6.71,0,.79,0,.93.28.92,1,0,4,0,8,0,12,0,1.1.33,1.32,1.32,1.27,1.66-.07,3.33,0,5,0,.6,0,.78.18.77.78,0,1.83,0,3.67,0,5.51,0,.76.14,1.05,1,1.05,3.09,0,6.13-.12,9-1.5.64-.31.77-.52.38-1.21-1.9-3.37-1.55-8.19.69-10.92.43-.53.72-.71,1.34-.18,2.15,1.84,4,3.89,4.53,6.79.13.67.44.51.87.42a10.62,10.62,0,0,1,7.59,1.05c.64.36.84.61.45,1.37a9,9,0,0,1-8.2,5c-1.76.06-2.68.56-3.14,2.23a14.88,14.88,0,0,1-1.12,2.36c2.52.54,4.77,0,7.68-2,.44,2.46,2.75,2.2,4.53,3.08-4.11,0-8,0-11.9,0a1.47,1.47,0,0,0-1.48.75c-5.42,8.59-13.3,13.5-23.07,15.43-5.42,1.06-10.9,1.47-16.33,0-8.1-2.12-13.53-7-15.42-15.5-.15-.68-.47-.73-1-.73C226.88,28.2,224.07,28.19,221.06,28.19Zm21.62,8.87h-7c5.47,5.61,11.92,7.43,19.19,6.88,13.74-.07,24.82-7.22,29.42-15.66H278.2a9.93,9.93,0,0,0-1.32-.17q-17.62,0-35.25,0c-3,0-6,.11-9,.14-.68,0-1,.13-.71.91.78,1.89,1.53,3.79,2.32,5.69a2,2,0,0,0,2.28,1.27c1.13-.08,2.27,0,3.41,0s2.25,0,3.36-.18c1.41-.19,2.8-.54,4.2-.76.26,0,.55.15.83.24a4.66,4.66,0,0,1-.46.67,1.53,1.53,0,0,1-.49.26ZM289.3,16.85a9.72,9.72,0,0,0-3.51-7.41c-.59-.55-.83-.35-1.17.24a9.14,9.14,0,0,0,.69,9.52c.55.67.36.89-.21,1.25A14.94,14.94,0,0,1,277,22.74q-20.68,0-41.37,0c-.46,0-.91,0-1.37,0s-1.2,0-1.8-.05c-.77-.09-1,.27-1,1,0,1,0,1.91.07,2.85,0,.26.41.71.61.7a18.27,18.27,0,0,0,2.32-.34,4.26,4.26,0,0,0,1.2-.24c1.41-.71,2.75-1.12,4.13.1a2.2,2.2,0,0,0,1.3.35,49.47,49.47,0,0,0,6.32.13c2-.16,4-.41,5.59-1.89.09-.09.47,0,.6.13,2.58,2.57,10.08,2.57,12.65,0a.66.66,0,0,1,.6-.12c1.49,1.39,3.4,1.66,5.26,1.84,2.69.27,5.43.55,8-.54a3.16,3.16,0,0,1,3.51-.22c1.48.83,1.59.64,2.36-.87a7.82,7.82,0,0,0,.88-1.85c.43-2,1.57-2.47,3.54-2.42A8,8,0,0,0,297.4,18c.64-.85.41-1.18-.48-1.52A10.2,10.2,0,0,0,289.3,16.85ZM248,8.28v0c-.79,0-1.59,0-2.38,0s-.84.24-.82.87c0,1.52,0,3.05,0,4.57,0,.59.18.83.78.81.83,0,1.66,0,2.49,0,3,0,3,0,3-3.1,0-1,.25-2.35-.27-2.94S248.93,8.32,248,8.28Zm-.23,13.46c1.16-.07,2.47.22,3.08-.31s.23-1.85.23-2.83.29-2.42-.24-2.94-1.91-.22-2.92-.21-2.33-.27-2.92.26-.18,1.86-.18,2.84-.31,2.37.19,2.84S246.86,21.67,247.72,21.74Zm-3.8-3.15h-.07a21.33,21.33,0,0,0,0-2.4,1,1,0,0,0-.67-.72q-2.39-.09-4.77,0c-.23,0-.61.46-.64.74a15.92,15.92,0,0,0,0,2.29c0,1-.26,2.35.27,3s1.84.2,2.81.2,2.3.28,2.82-.23S243.85,19.57,243.92,18.59Zm11-10.32v.05h-.11c-1,0-2.23-.24-2.8.27s-.19,1.78-.18,2.73-.33,2.48.19,2.95,2,.26,3,.27,2.3.3,2.81-.22.23-1.85.23-2.83.3-2.42-.23-3S255.92,8.32,254.92,8.27Zm4,3.25a19.25,19.25,0,0,0,0,2.28,1,1,0,0,0,.69.71c1.59.07,3.18,0,4.76.05.6,0,.79-.24.78-.81,0-1.57,0-3.14,0-4.7a1,1,0,0,0-.69-.7c-1.58-.06-3.17,0-4.76,0-.6,0-.8.22-.78.8C258.91,9.91,258.89,10.72,258.89,11.52Zm3.13-4V7.44c.75,0,1.51,0,2.27,0s.86-.21.84-.86c0-1.41-.07-2.83,0-4.23.06-1-.32-1.27-1.23-1.17-.64.07-1.28,0-1.93,0-1,0-2.32-.26-2.9.27s-.2,1.86-.19,2.85-.3,2.37.2,2.84S261,7.43,262,7.51Zm7.05,7.87v.06c-.75,0-1.51,0-2.26,0s-.89.14-.87.82c0,1.53,0,3.05,0,4.58,0,.65.22.86.85.85q2.27-.06,4.53,0c.67,0,1-.17.93-.9s0-1.44,0-2.17c0-1,.29-2.41-.24-2.94S270.07,15.44,269.07,15.38ZM262,21.75c1-.08,2.34.19,2.91-.35s.2-1.87.21-2.85.3-2.39-.2-2.84-1.91-.26-2.91-.26-2.33-.27-2.92.26-.19,1.85-.19,2.84-.31,2.37.2,2.84S261,21.67,262,21.75Zm-7.14,0v0c.79,0,1.59,0,2.38,0,.63,0,.87-.2.86-.85,0-1.53,0-3,0-4.58,0-.56-.13-.84-.75-.82-1.59,0-3.17,0-4.76,0-.58,0-.82.17-.79.78,0,.8,0,1.6,0,2.4,0,1-.26,2.32.25,2.83S253.9,21.66,254.87,21.72Z" transform="translate(10)"/><path class="cls-1" d="M232.56,54.13V49.54c0-.84.18-1.53,1.23-1.54s1.21.68,1.21,1.53c0,3.45,0,6.89,0,10.33A7,7,0,0,1,227.85,67a7.08,7.08,0,0,1-7.18-6.92,6.79,6.79,0,0,1,3.5-6.6,7,7,0,0,1,7.63.18ZM227.8,64.47a4.75,4.75,0,1,0-4.67-4.77A4.8,4.8,0,0,0,227.8,64.47Z" transform="translate(10)"/><path class="cls-1" d="M281.59,64.48c1-.15,2-.29,3-.47.45-.07.93-.42,1.29-.31s1,.62,1,1A1.78,1.78,0,0,1,286.2,66a7,7,0,0,1-8.53-1.23A7.24,7.24,0,0,1,278,54.28a7.16,7.16,0,0,1,10.41.82c1.12,1.47,1,2.06-.37,3.26-2,1.75-4.08,3.53-6.11,5.31a4.69,4.69,0,0,0-.42.47Zm-2.38-1.82c2.21-1.91,4.41-3.83,6.63-5.72.43-.37.42-.58,0-.94a4.7,4.7,0,0,0-6.59,6.66Z" transform="translate(10)"/><path class="cls-1" d="M250.68,59.88A7,7,0,0,1,243.43,67a7.28,7.28,0,1,1,7.25-7.11Zm-7.12,4.59a4.75,4.75,0,1,0-4.74-4.71A4.81,4.81,0,0,0,243.56,64.47Z" transform="translate(10)"/><path class="cls-1" d="M268.42,62.86c0,1.12,0,1.94,0,2.77s-.32,1.24-1.14,1.27A1.11,1.11,0,0,1,266,65.65c0-5.47,0-10.94,0-16.41a1.06,1.06,0,0,1,1.2-1.2c.88,0,1.22.49,1.22,1.3v7.3l2-2c.57-.56,1.14-1.12,1.72-1.66a1.24,1.24,0,1,1,1.71,1.79c-1.29,1.35-2.53,2.75-3.92,4-.92.82-.76,1.27,0,2,1.29,1.18,2.45,2.49,3.69,3.73.65.65,1,1.38.28,2.11s-1.39.33-2-.25Z" transform="translate(10)"/><path class="cls-1" d="M259.29,52.21c1.1.35,2.21.66,3.28,1.08a1.1,1.1,0,0,1,.64,1.67,2,2,0,0,1-1.6.57c-.81-.05-1.59-.52-2.39-.58A4.24,4.24,0,0,0,255,57.76a4.34,4.34,0,0,0,.65,4.92,4.62,4.62,0,0,0,5,1.55,5.09,5.09,0,0,0,.84-.34,1.22,1.22,0,0,1,1.77.44,1.42,1.42,0,0,1-.8,2c-2.38,1-6.32,1.19-8.61-1.7a7.5,7.5,0,0,1,5.48-12.4Z" transform="translate(10)"/><path class="cls-1" d="M291.25,62.25a32.6,32.6,0,0,1,.36-4.55,6.9,6.9,0,0,1,6.16-5.09c1.35-.08,2,.26,1.94,1.16,0,1.14-.88,1.27-1.75,1.35a4.56,4.56,0,0,0-4.14,4.39c0,.8,0,1.6,0,2.4,0,1.19,0,2.37,0,3.56,0,.87-.33,1.52-1.32,1.48s-1.17-.64-1.15-1.49c0-1.07,0-2.14,0-3.21Z" transform="translate(10)"/><path class="cls-2" d="M247.4,36.32a1.53,1.53,0,0,0,.49-.26,4.66,4.66,0,0,0,.46-.67c-.28-.09-.57-.28-.83-.24-1.4.22-2.79.57-4.2.76-1.11.14-2.24.12-3.36.18a15.2,15.2,0,0,1-4.8-6.64c-.31-.88-.18-1.16.77-1.16q21,0,42,0c-3.05,2-6,4.24-9.18,5.93-6.14,3.24-12.65,5.28-19.72,4.86l-.37-.31Zm3.18-1.17a1.71,1.71,0,0,0,1.68-1.76,1.62,1.62,0,0,0-1.73-1.69,1.71,1.71,0,0,0-1.7,1.74A1.73,1.73,0,0,0,250.58,35.15Z" transform="translate(10)"/><path class="cls-3" d="M234.27,22.8c.46,0,.91,0,1.37,0q20.69,0,41.37,0a14.94,14.94,0,0,0,8.09-2.29c.57-.36.76-.58.21-1.25a9.14,9.14,0,0,1-.69-9.52c.34-.59.58-.79,1.17-.24a9.72,9.72,0,0,1,3.51,7.41,37.36,37.36,0,0,1-2.61,3.37c-2.11,2.21-4.32,4.32-6.48,6.47-2.62,1.09-5.36.81-8,.54-1.86-.18-3.77-.45-5.26-1.84a.66.66,0,0,0-.6.12c-2.57,2.57-10.07,2.57-12.65,0-.13-.12-.51-.22-.6-.13-1.58,1.48-3.62,1.73-5.59,1.89a49.47,49.47,0,0,1-6.32-.13,2.2,2.2,0,0,1-1.3-.35c-1.38-1.22-2.72-.81-4.13-.1a4.26,4.26,0,0,1-1.2.24Z" transform="translate(10)"/><path class="cls-4" d="M249,39.1c7.07.42,13.58-1.62,19.72-4.86,3.2-1.69,6.13-3.93,9.18-5.93l.28,0h6.14c-4.6,8.44-15.68,15.59-29.42,15.66-.33-.19-.66-.36-1-.56A14,14,0,0,1,249,39.1Z" transform="translate(10)"/><path class="cls-5" d="M280.21,26.69c2.16-2.15,4.37-4.26,6.48-6.47a37.36,37.36,0,0,0,2.61-3.37,10.2,10.2,0,0,1,7.62-.33c.89.34,1.12.67.48,1.52a8,8,0,0,1-6.9,3.29c-2,0-3.11.42-3.54,2.42a7.82,7.82,0,0,1-.88,1.85c-.77,1.51-.88,1.7-2.36.87A3.16,3.16,0,0,0,280.21,26.69Z" transform="translate(10)"/><path class="cls-6" d="M249,39.1a14,14,0,0,0,4.91,4.28c.33.2.66.37,1,.56-7.27.55-13.72-1.27-19.19-6.88h7l-.46.29a1.61,1.61,0,0,0,.4.3c1.37.41,2.73.86,4.12,1.17a7.65,7.65,0,0,0,1.91,0Z" transform="translate(10)"/><path class="cls-4" d="M278.2,28.28l-.28,0q-21,0-42,0c-1,0-1.08.28-.77,1.16a15.2,15.2,0,0,0,4.8,6.64c-1.14,0-2.28-.05-3.41,0a2,2,0,0,1-2.28-1.27c-.79-1.9-1.54-3.8-2.32-5.69-.32-.78,0-.91.71-.91,3,0,6-.14,9-.14q17.63,0,35.25,0A9.93,9.93,0,0,1,278.2,28.28Z" transform="translate(10)"/><path class="cls-7" d="M248,8.28c1,0,2.37-.29,2.82.23s.26,1.93.27,2.94c0,3.1,0,3.1-3,3.1-.83,0-1.66,0-2.49,0-.6,0-.79-.22-.78-.81,0-1.52,0-3.05,0-4.57,0-.63.16-.91.82-.87s1.59,0,2.38,0Zm-1.31.83h-.22v4.81h.22Zm.91,0h-.21v4.81h.21Zm2.79,0h-.23v4.84h.23Zm-1.18,4.84h.22V9.07h-.22Zm-.71-4.82h-.19v4.8h.19Zm-2.84.1-.15-.05v4.7h.15Z" transform="translate(10)"/><path class="cls-8" d="M247.72,21.74c-.86-.07-2.18.2-2.76-.35s-.19-1.86-.19-2.84-.32-2.39.18-2.84,1.91-.26,2.92-.26,2.39-.32,2.92.21.23,1.93.24,2.94.28,2.39-.23,2.83S248.88,21.67,247.72,21.74Zm-1.31-.7h.19V16.2h-.19Zm.87,0h.22V16.2h-.22Zm1,0h.2V16.2h-.2Zm1.17-4.85h-.2v4.87h.2Zm.65,4.88h.22V16.18h-.22Zm-4.6-.09.16,0V16.24h-.16Z" transform="translate(10)"/><path class="cls-9" d="M243.92,18.59c-.07,1,.21,2.33-.31,2.84s-1.84.22-2.82.23-2.37.31-2.81-.2-.24-1.94-.27-3a15.92,15.92,0,0,1,0-2.29c0-.28.41-.73.64-.74q2.38-.09,4.77,0a1,1,0,0,1,.67.72,21.33,21.33,0,0,1,0,2.4ZM240.23,21h.23V16.21h-.23Zm1.18-4.8h-.22V21h.22Zm.68,4.8h.21v-4.8h-.21Zm1.17-4.8h-.21V21h.21ZM239.32,21h.15V16.29h-.15Zm-.75-4.66h-.15V21h.15Z" transform="translate(10)"/><path class="cls-10" d="M254.92,8.27c1,.05,2.39-.27,2.92.27s.23,1.93.23,3,.28,2.32-.23,2.83-1.84.23-2.81.22-2.41.28-3-.27-.19-1.93-.19-2.95-.3-2.3.18-2.73,1.83-.22,2.8-.27h.11Zm2.46.79h-.23v4.87h.23Zm-.94,0h-.22v4.87h.22Zm-.89,0h-.2V14h.2Zm-1.2,4.87h.23V9.08h-.23Zm-.66-4.83h-.22v4.83h.22Zm-1.15,4.84h.23V9.09h-.23Z" transform="translate(10)"/><path class="cls-11" d="M258.89,11.52c0-.8,0-1.61,0-2.41,0-.58.18-.81.78-.8,1.59,0,3.18,0,4.76,0a1,1,0,0,1,.69.7c.07,1.56,0,3.13,0,4.7,0,.57-.18.82-.78.81-1.58,0-3.17,0-4.76-.05a1,1,0,0,1-.69-.71A19.25,19.25,0,0,1,258.89,11.52Zm5.53-2.41h-.21v4.8h.21Zm-.89,0h-.21v4.85h.21Zm-.91,0h-.22v4.85h.22Zm-.95,0h-.19v4.84h.19Zm-.94,0h-.19v4.8h.19Zm-1.12,4.81h.21V9.11h-.21Z" transform="translate(10)"/><path class="cls-10" d="M262,7.51c-1-.08-2.32.2-2.91-.34s-.2-1.86-.2-2.84-.32-2.39.19-2.85,1.9-.23,2.9-.27c.65,0,1.29.05,1.93,0,.91-.1,1.29.16,1.23,1.17-.09,1.4-.05,2.82,0,4.23,0,.65-.2.89-.84.86s-1.52,0-2.27,0Zm1.22-.69h.22V1.94h-.22Zm.92,0h.21V2h-.21Zm-1.81,0h.19V1.94h-.19Zm-.92,0h.21V1.94h-.21ZM260.77,2h-.22V6.8h.22Zm-1.19,4.83.2,0V2h-.2Z" transform="translate(10)"/><path class="cls-11" d="M269.07,15.38c1,.06,2.38-.25,2.91.29s.21,1.93.24,2.94c0,.73,0,1.45,0,2.17s-.26.91-.93.9q-2.26-.06-4.53,0c-.63,0-.87-.2-.85-.85,0-1.53,0-3,0-4.58,0-.68.26-.85.87-.82s1.51,0,2.26,0Zm-2.18.85h-.18V21h.18Zm.93,0h-.21v4.84h.21Zm.91,0h-.18v4.86l.18,0Zm.91,0h-.21v4.85h.21Zm.93,0h-.23V21h.23Zm.69,4.82h.19v-4.8h-.19Z" transform="translate(10)"/><path class="cls-10" d="M262,21.75c-1-.08-2.33.19-2.9-.36s-.2-1.86-.2-2.84-.31-2.4.19-2.84,1.91-.26,2.92-.26,2.32-.27,2.91.26.2,1.86.2,2.84.3,2.37-.21,2.85S263,21.67,262,21.75Zm-2.19-5.53h-.21V21h.21Zm.69,4.82h.19V16.2h-.19Zm1.17-4.86h-.23v4.88h.23Zm.66,4.87h.23V16.17h-.23Zm.92,0h.19V16.17h-.19Zm.94,0h.19V16.21h-.19Z" transform="translate(10)"/><path class="cls-12" d="M254.87,21.72c-1-.06-2.3.24-2.81-.28s-.22-1.85-.25-2.83c0-.8,0-1.6,0-2.4,0-.61.21-.79.79-.78,1.59,0,3.17,0,4.76,0,.62,0,.76.26.75.82,0,1.53,0,3.05,0,4.58,0,.65-.23.88-.86.85-.79,0-1.59,0-2.38,0ZM252.55,21h.2V16.22h-.2Zm.87,0h.22V16.21h-.22Zm.94,0h.22v-4.8h-.22Zm1.17-4.82h-.22v4.84h.22Zm.93,0h-.23v4.84h.23Zm.9,0h-.23v4.84h.23Z" transform="translate(10)"/><path class="cls-5" d="M234.27,22.8l.24,4.13a18.27,18.27,0,0,1-2.32.34c-.2,0-.59-.44-.61-.7-.09-.94,0-1.9-.07-2.85,0-.7.19-1.06,1-1C233.07,22.82,233.67,22.79,234.27,22.8Z" transform="translate(10)"/><path class="cls-13" d="M248.65,38.79a7.65,7.65,0,0,1-1.91,0c-1.39-.31-2.75-.76-4.12-1.17a1.61,1.61,0,0,1-.4-.3l.46-.29,4.72-.74Z" transform="translate(10)"/><path class="cls-14" d="M250.58,35.15a1.73,1.73,0,0,1-1.75-1.71,1.71,1.71,0,0,1,1.7-1.74,1.62,1.62,0,0,1,1.73,1.69A1.71,1.71,0,0,1,250.58,35.15Zm-.07-.15c.53-.53,1-.82,1.21-1.24s0-.82-.63-.69c-.05,0-.13-.33-.26-.42a2.5,2.5,0,0,0-.72-.38c-.29.44-.75.94-.71,1.38S250,34.45,250.51,35Z" transform="translate(10)"/><path class="cls-1" d="M246.64,9.11v4.8h-.22V9.11Z" transform="translate(10)"/><path class="cls-1" d="M247.55,9.11v4.8h-.21V9.11Z" transform="translate(10)"/><path class="cls-15" d="M250.34,9.09v4.84h-.23V9.09Z" transform="translate(10)"/><path class="cls-15" d="M249.16,13.93V9.08h.22v4.85Z" transform="translate(10)"/><ellipse class="cls-1" cx="258.35" cy="11.51" rx="0.14" ry="3.39"/><path class="cls-16" d="M245.61,9.21v4.65h-.15V9.16Z" transform="translate(10)"/><path class="cls-1" d="M246.41,21V16.21h.19V21Z" transform="translate(10)"/><path class="cls-1" d="M247.28,21V16.2h.22v4.85Z" transform="translate(10)"/><path class="cls-1" d="M248.24,21V16.21h.2V21Z" transform="translate(10)"/><path class="cls-17" d="M249.41,16.18v4.87h-.2V16.19Z" transform="translate(10)"/><path class="cls-17" d="M250.06,21.06V16.18h.22v4.87Z" transform="translate(10)"/><path class="cls-18" d="M245.46,21V16.24h.16V21Z" transform="translate(10)"/><path class="cls-1" d="M240.23,21V16.22h.23V21Z" transform="translate(10)"/><path class="cls-1" d="M241.41,16.23V21h-.22V16.22Z" transform="translate(10)"/><path class="cls-1" d="M242.09,21V16.22h.21V21Z" transform="translate(10)"/><path class="cls-1" d="M243.26,16.23V21h-.21v-4.8Z" transform="translate(10)"/><ellipse class="cls-16" cx="249.4" cy="18.63" rx="0.11" ry="3.32"/><path class="cls-16" d="M238.57,16.31V21h-.15V16.3Z" transform="translate(10)"/><path class="cls-17" d="M257.38,9.06v4.88h-.23V9.07Z" transform="translate(10)"/><ellipse class="cls-17" cx="266.33" cy="11.5" rx="0.16" ry="3.45"/><path class="cls-17" d="M255.55,9.05v4.89h-.2V9.06Z" transform="translate(10)"/><path class="cls-1" d="M254.35,13.92V9.09h.23v4.83Z" transform="translate(10)"/><path class="cls-1" d="M253.69,9.09v4.83h-.22V9.09Z" transform="translate(10)"/><path class="cls-1" d="M252.54,13.93V9.09h.23v4.83Z" transform="translate(10)"/><path class="cls-1" d="M264.42,9.11v4.8h-.21V9.11Z" transform="translate(10)"/><path class="cls-15" d="M263.53,9.08v4.85h-.21V9.08Z" transform="translate(10)"/><path class="cls-15" d="M262.62,9.08v4.85h-.22V9.09Z" transform="translate(10)"/><ellipse class="cls-15" cx="271.58" cy="11.51" rx="0.14" ry="3.42"/><path class="cls-1" d="M260.73,9.1v4.81h-.19V9.11Z" transform="translate(10)"/><path class="cls-1" d="M259.61,13.91V9.11h.21v4.8Z" transform="translate(10)"/><path class="cls-17" d="M263.24,6.82V2h.22V6.82Z" transform="translate(10)"/><path class="cls-1" d="M264.16,6.79V2h.21V6.8Z" transform="translate(10)"/><path class="cls-17" d="M262.35,6.82V2h.19V6.82Z" transform="translate(10)"/><path class="cls-17" d="M261.43,6.82V2h.21V6.82Z" transform="translate(10)"/><path class="cls-1" d="M260.77,2V6.79h-.22V2Z" transform="translate(10)"/><path class="cls-1" d="M259.58,6.81V2h.2V6.79Z" transform="translate(10)"/><path class="cls-1" d="M266.89,16.23V21h-.18V16.22Z" transform="translate(10)"/><path class="cls-15" d="M267.82,16.2V21h-.21V16.21Z" transform="translate(10)"/><path class="cls-15" d="M268.73,16.19V21l-.18,0V16.2Z" transform="translate(10)"/><path class="cls-15" d="M269.64,16.2v4.85h-.21V16.21Z" transform="translate(10)"/><path class="cls-1" d="M270.57,16.21V21h-.23V16.22Z" transform="translate(10)"/><path class="cls-1" d="M271.26,21v-4.8h.19V21Z" transform="translate(10)"/><path class="cls-1" d="M259.82,16.22V21h-.21V16.21Z" transform="translate(10)"/><path class="cls-1" d="M260.51,21V16.2h.19V21Z" transform="translate(10)"/><path class="cls-17" d="M261.68,16.18v4.88h-.23V16.18Z" transform="translate(10)"/><path class="cls-17" d="M262.34,21.05V16.17h.23v4.88Z" transform="translate(10)"/><path class="cls-17" d="M263.26,21.06V16.18h.19v4.88Z" transform="translate(10)"/><path class="cls-1" d="M264.2,21V16.22h.19V21Z" transform="translate(10)"/><path class="cls-1" d="M252.55,21V16.22h.2V21Z" transform="translate(10)"/><path class="cls-1" d="M253.42,21V16.22h.22V21Z" transform="translate(10)"/><path class="cls-1" d="M254.36,21V16.22h.22V21Z" transform="translate(10)"/><path class="cls-15" d="M255.53,16.21v4.84h-.22V16.21Z" transform="translate(10)"/><path class="cls-15" d="M256.46,16.21v4.84h-.23V16.21Z" transform="translate(10)"/><path class="cls-15" d="M257.36,16.21v4.84h-.23V16.21Z" transform="translate(10)"/><path class="cls-19" d="M250.51,35c-.49-.55-1.06-.93-1.11-1.35s.42-.94.71-1.38a2.5,2.5,0,0,1,.72.38c.13.09.21.44.26.42.62-.13.89.17.63.69S251,34.47,250.51,35Z" transform="translate(10)"/><path class="cls-20" d="M190,12.63V11.38H173.75A3.74,3.74,0,0,0,170,15.13v17.5a3.75,3.75,0,0,0,3.75,3.75h12.5A3.75,3.75,0,0,0,190,32.63h0V31.38H175.67a.67.67,0,0,1-.67-.67V26.38h11.25A3.75,3.75,0,0,0,190,22.63h0V21.38H175V17.05a.66.66,0,0,1,.67-.67h10.58A3.75,3.75,0,0,0,190,12.63" transform="translate(10)"/><path class="cls-20" d="M145.75,16.38h10.44a3.75,3.75,0,0,1,.06,7.5H145V17.13a.75.75,0,0,1,.75-.75M165,20a8.9,8.9,0,0,0-9-8.64H143.75A3.74,3.74,0,0,0,140,15.13V36.38h1.25A3.75,3.75,0,0,0,145,32.63h0V28.88h9.9l3.61,6.25a2.53,2.53,0,0,0,2.16,1.25H165L160.14,28A8.77,8.77,0,0,0,165,20" transform="translate(10)"/><path class="cls-20" d="M64,12.38l-8.44,8.44a.75.75,0,0,1-1.06,0L46,12.38a3.53,3.53,0,0,0-6,2.5v21.5h1.25A3.75,3.75,0,0,0,45,32.63h0V19.25a.33.33,0,0,1,.32-.35.36.36,0,0,1,.25.11l6.78,6.78a3.75,3.75,0,0,0,5.3,0L64.43,19a.33.33,0,0,1,.47,0,.35.35,0,0,1,.1.26V36.38h1.25A3.75,3.75,0,0,0,70,32.63h0V14.88a3.5,3.5,0,0,0-3.5-3.5h0a3.41,3.41,0,0,0-2.45,1" transform="translate(10)"/><path class="cls-20" d="M31.25,36.38H30V15.13a3.74,3.74,0,0,1,3.75-3.75H35V32.63a3.75,3.75,0,0,1-3.75,3.75h0" transform="translate(10)"/><path class="cls-20" d="M16.14,23.88H5V17.13a.75.75,0,0,1,.75-.75h10.5A3.74,3.74,0,0,1,20,20.12v.2a3.83,3.83,0,0,1-3.86,3.56M16,11.38H3.75A3.74,3.74,0,0,0,0,15.13V36.38H1.25A3.75,3.75,0,0,0,5,32.63H5V28.88H16.25A8.75,8.75,0,0,0,25,20.3a9,9,0,0,0-9-8.93h0" transform="translate(10)"/><path class="cls-20" d="M122.5,31.38A7.5,7.5,0,0,1,116.23,28l-2.73-4.12,2.75-4.15a7.5,7.5,0,1,1,6.25,11.65m0-20A12.45,12.45,0,0,0,112.07,17l-9.15,13.79a12.52,12.52,0,1,1-.06-13.9l1.64,2.5,3-4.53-.44-.67a17.5,17.5,0,1,0-4.88,24.26,17.71,17.71,0,0,0,4.88-4.88l3.44-5.18,1.58,2.38A12.5,12.5,0,1,0,122.5,11.38" transform="translate(10)"/><path class="cls-20" d="M196.87,13.16h1a.36.36,0,0,1,.37.32.35.35,0,0,1-.33.38h-1.1v-.62Zm1.82.32a.85.85,0,0,0-.86-.79h-1.19a.33.33,0,0,0-.33.33h0v2h.24l.24-.24v-.4h.94l.39.67h.57l-.46-.8a.83.83,0,0,0,.46-.79" transform="translate(10)"/><path class="cls-20" d="M197.5,11.38a2.5,2.5,0,1,0,2.5,2.5,2.49,2.49,0,0,0-2.5-2.5m0,.48a2,2,0,1,1-2,2,2,2,0,0,1,2-2" transform="translate(10)"/><g class="cls-21"><path class="cls-20" d="M-7.17,32.69H-8.36a.33.33,0,0,0-.33.33v2h.24l.24-.24v-.4h.94l.39.67h.57l-.46-.8a.83.83,0,0,0,.46-.79.85.85,0,0,0-.86-.79m-1,1.19v-.63l.08-.08h1a.36.36,0,0,1,.37.32.35.35,0,0,1-.33.38H-8.17Z" transform="translate(10)"/><path class="cls-20" d="M-7.5,31.38a2.49,2.49,0,0,0-2.5,2.5,2.5,2.5,0,0,0,2.5,2.5A2.5,2.5,0,0,0-5,33.88a2.49,2.49,0,0,0-2.5-2.5m0,4.52a2,2,0,0,1-2-2,2,2,0,0,1,2-2,2,2,0,0,1,2,2,2,2,0,0,1-2,2" transform="translate(10)"/></g><path class="cls-20" d="M31.64,56.72a3.71,3.71,0,1,0,0,.09v-.09m-8.33,0a4.61,4.61,0,1,1,0,.11v-.06" transform="translate(10)"/><polygon class="cls-20" points="53.26 54.8 51.3 61.17 50.38 61.17 48.74 56.03 47.1 61.17 46.18 61.17 44.22 54.8 45.08 54.8 46.65 60.09 48.32 54.8 49.16 54.8 50.83 60.09 52.4 54.8 53.26 54.8"/><path class="cls-20" d="M50.78,57.27v3.91h-.84V57.27a1.61,1.61,0,0,0-1.4-1.8h-.33c-1.12,0-2.06.66-2.06,2.37v3.34H45.3V54.81h.84v1a2.52,2.52,0,0,1,4.64,1.46" transform="translate(10)"/><path class="cls-20" d="M58.28,55.62v3.86c0,1.1.6,1,1.84,1v.74c-1.72.25-2.68-.16-2.68-1.7v-3.9H56.1V54.8h1.34V53.28l.84-.25v1.78h1.84v.82Z" transform="translate(10)"/><path class="cls-20" d="M67.68,57.27v3.91h-.84V57.27a1.61,1.61,0,0,0-1.4-1.8h-.33c-1.12,0-2.06.66-2.06,2.37v3.34H62.2V52.26H63V55.8a2.32,2.32,0,0,1,2.14-1.15,2.36,2.36,0,0,1,2.51,2.22,2.54,2.54,0,0,1,0,.39" transform="translate(10)"/><path class="cls-20" d="M70.73,57.6h4.75a2.27,2.27,0,0,0-2.29-2.13,2.38,2.38,0,0,0-2.46,2.13m5.62.42v.4H70.73a2.39,2.39,0,0,0,2.53,2.1,2.29,2.29,0,0,0,2-1.08l.74.43a3.22,3.22,0,0,1-2.79,1.51,3.34,3.34,0,1,1,3.08-3.59,2.53,2.53,0,0,1,0,.28" transform="translate(10)"/><path class="cls-20" d="M88.92,56.72a3.39,3.39,0,0,0-3.15-3.62H83v7.28h2.55a3.4,3.4,0,0,0,3.35-3.44c0-.06,0-.12,0-.18m.87,0a4.25,4.25,0,0,1-4,4.45H82.15v-9h3.44a4.25,4.25,0,0,1,4.22,4.28,1.09,1.09,0,0,0,0,.18" transform="translate(10)"/><path class="cls-20" d="M92.12,54.81H93v6.37h-.84Zm-.19-2a.61.61,0,1,1,1.22,0,.61.61,0,1,1-1.22,0h0" transform="translate(10)"/><path class="cls-20" d="M101.07,58a2.49,2.49,0,1,0,0,.07V58m.84-3.18v6.11a3,3,0,0,1-3,3h-.21a3.15,3.15,0,0,1-3-1.55l.74-.42a2.2,2.2,0,0,0,2.28,1.16,2.1,2.1,0,0,0,2.34-1.81,1.83,1.83,0,0,0,0-.33V60a3,3,0,0,1-2.59,1.41,3.34,3.34,0,0,1,0-6.68,3,3,0,0,1,2.57,1.4V54.81Z" transform="translate(10)"/><path class="cls-20" d="M104.58,54.81h.84v6.37h-.84Zm-.19-2a.61.61,0,0,1,1.22,0,.61.61,0,0,1-1.22,0h0" transform="translate(10)"/><path class="cls-20" d="M109.54,55.62v3.86c0,1.1.6,1,1.83,1v.74c-1.72.25-2.68-.16-2.68-1.7v-3.9h-1.34V54.8h1.34V53.28l.84-.25v1.78h1.83v.82Z" transform="translate(10)"/><path class="cls-20" d="M118.77,58a2.49,2.49,0,1,0,0,.07V58m.84-3.18v6.37h-.84V59.93a3,3,0,0,1-2.57,1.45,3.34,3.34,0,0,1,0-6.68h0a3,3,0,0,1,2.57,1.4V54.81Z" transform="translate(10)"/><rect class="cls-20" x="132.28" y="51.88" width="0.84" height="9.3"/><polygon class="cls-20" points="138.72 52.26 139.67 52.26 141.87 59.97 144.19 52.26 145.23 52.26 147.55 59.97 149.76 52.26 150.7 52.26 148.11 61.17 147.04 61.17 144.71 53.42 142.38 61.17 141.31 61.17 138.72 52.26"/><path class="cls-20" d="M147.84,58a2.49,2.49,0,1,0,0,.07V58M142,58a4.26,4.26,0,1,1,0,.1V58" transform="translate(10)"/><path class="cls-20" d="M153.83,54.71v.82a1.87,1.87,0,0,0-2,1.74,1.54,1.54,0,0,0,0,.37v3.54H151V54.81h.84v1.06a2,2,0,0,1,2-1.16" transform="translate(10)"/><path class="cls-20" d="M164.76,58a2.51,2.51,0,1,0-2.51,2.52A2.51,2.51,0,0,0,164.76,58v0m.84-5.73v8.92h-.84V59.93a3,3,0,0,1-2.57,1.4,3.34,3.34,0,0,1,0-6.68h0a3,3,0,0,1,2.57,1.4v-3.8Z" transform="translate(10)"/><rect class="cls-20" x="165.78" y="51.88" width="0.84" height="9.3"/></svg>